<svg aria-hidden="true" style="position: absolute; width: 0; height: 0; overflow: hidden;" version="1.1" xmlns="http://www.w3.org/2000/svg" xmlns:xlink="http://www.w3.org/1999/xlink">
<defs>
<symbol id="icon-linkedin" viewBox="0 0 24 24">
<path d="M19 0h-14c-2.761 0-5 2.239-5 5v14c0 2.761 2.239 5 5 5h14c2.762 0 5-2.239 5-5v-14c0-2.761-2.238-5-5-5zm-11 19h-3v-11h3v11zm-1.5-12.268c-.966 0-1.75-.79-1.75-1.764s.784-1.764 1.75-1.764 1.75.79 1.75 1.764-.783 1.764-1.75 1.764zm13.5 12.268h-3v-5.604c0-3.368-4-3.113-4 0v5.604h-3v-11h3v1.765c1.396-2.586 7-2.777 7 2.476v6.759z"/>
</symbol>
<symbol id="icon-github" viewBox="0 0 24 24">
<path d="M19 0h-14c-2.761 0-5 2.239-5 5v14c0 2.761 2.239 5 5 5h14c2.762 0 5-2.239 5-5v-14c0-2.761-2.238-5-5-5zm-4.466 19.59c-.405.078-.534-.171-.534-.384v-2.195c0-.747-.262-1.233-.55-1.481 1.782-.198 3.654-.875 3.654-3.947 0-.874-.312-1.588-.823-2.147.082-.202.356-1.016-.079-2.117 0 0-.671-.215-2.198.82-.64-.18-1.324-.267-2.004-.271-.68.003-1.364.091-2.003.269-1.528-1.035-2.2-.82-2.2-.82-.434 1.102-.16 1.915-.077 2.118-.512.56-.824 1.273-.824 2.147 0 3.064 1.867 3.751 3.645 3.954-.229.2-.436.552-.508 1.07-.457.204-1.614.557-2.328-.666 0 0-.423-.768-1.227-.825 0 0-.78-.01-.055.487 0 0 .525.246.889 1.17 0 0 .463 1.428 2.688.944v1.489c0 .211-.129.459-.528.385-3.18-1.057-5.472-4.056-5.472-7.59 0-4.419 3.582-8 8-8s8 3.581 8 8c0 3.533-2.289 6.531-5.466 7.59z"/>
</symbol>
<symbol id="icon-film" viewBox="0 0 32 32">
<path fill="transparent" stroke="currentColor" stroke-linejoin="round" stroke-linecap="round" stroke-miterlimit="4" stroke-width="2.6667" d="M26.427 2.667h-20.853c-1.605 0-2.907 1.301-2.907 2.907v0 20.853c0 1.605 1.301 2.907 2.907 2.907v0h20.853c1.605 0 2.907-1.301 2.907-2.907v0-20.853c0-1.605-1.301-2.907-2.907-2.907v0zM9.333 2.667v26.667M22.667 2.667v26.667M2.667 16h26.667M2.667 9.333h6.667M2.667 22.667h6.667M22.667 22.667h6.667M22.667 9.333h6.667"></path>
</symbol>
<symbol id="icon-search" fill="transparent" viewBox="0 0 12 12">
<path d="M5.5 9.5a4 4 0 1 0 0-8 4 4 0 0 0 0 8ZM10.5 10.5 8.325 8.325" stroke="currentColor" stroke-linecap="round" stroke-linejoin="round"/>
</symbol>
<symbol id="icon-circle-up" viewBox="0 0 32 32">
<path d="M0 16c0 8.837 7.163 16 16 16s16-7.163 16-16-7.163-16-16-16-16 7.163-16 16zM29 16c0 7.18-5.82 13-13 13s-13-5.82-13-13 5.82-13 13-13 13 5.82 13 13z"></path>
<path d="M22.086 20.914l2.829-2.829-8.914-8.914-8.914 8.914 2.828 2.828 6.086-6.086z"></path>
</symbol>
<symbol id="icon-heart-1" viewBox="0 0 14 13">
<path d="M7 12.88L6.02 11.9C2.38 8.68 0 6.51 0 3.85C0 1.68 1.68 0 3.85 0C5.04 0 6.23 0.56 7 1.47C7.77 0.56 8.96 0 10.15 0C12.32 0 14 1.68 14 3.85C14 6.51 11.62 8.68 7.98 11.9L7 12.88Z"></path>
</symbol>
<symbol id="icon-heart" viewBox="0 0 32 32">
<path d="M23.6 2c-3.363 0-6.258 2.736-7.599 5.594-1.342-2.858-4.237-5.594-7.601-5.594-4.637 0-8.4 3.764-8.4 8.401 0 9.433 9.516 11.906 16.001 21.232 6.13-9.268 15.999-12.1 15.999-21.232 0-4.637-3.763-8.401-8.4-8.401z"></path>
</symbol>
<symbol id="icon-close" fill="transparent" viewBox="0 0 32 32">
<path stroke="currentColor" stroke-linejoin="miter" stroke-linecap="butt" stroke-miterlimit="4" stroke-width="2.1333" d="M8.533 8.533l14.933 14.933M8.533 23.467l14.933-14.933"></path>
</symbol>
<symbol id="icon-menu" viewBox="0 0 32 32">
<path d="M6.4 11.734v-2.134h19.2v2.134h-19.2zM6.4 17.066h19.2v-2.133h-19.2v2.133zM6.4 22.4h19.2v-2.134h-19.2v2.134z"></path>
</symbol>
<symbol id="menu_40px" viewBox="0 0 32 32">
<path d="M6.4 11.734v-2.134h19.2v2.134h-19.2zM6.4 17.066h19.2v-2.133h-19.2v2.133zM6.4 22.4h19.2v-2.134h-19.2v2.134z"></path>
</symbol>
<symbol id="person-black-18dp" viewBox="0 0 32 32">
<path d="M16 16c2.946 0 5.333-2.388 5.333-5.333s-2.388-5.333-5.333-5.333v0c-2.946 0-5.333 2.388-5.333 5.333s2.388 5.333 5.333 5.333v0zM16 18.667c-3.561 0-10.667 1.787-10.667 5.333v1.333c0 0.732 0.599 1.333 1.333 1.333h18.667c0.732 0 1.333-0.601 1.333-1.333v-1.333c0-3.547-7.108-5.333-10.667-5.333z"></path>
</symbol>
<symbol id="phone-black-18dp" viewBox="0 0 32 32">
<path d="M24.882 19.774l-3.268-0.373c-0.090-0.011-0.194-0.018-0.299-0.018-0.707 0-1.348 0.287-1.811 0.75l-2.368 2.368c-3.669-1.894-6.585-4.81-8.427-8.372l-0.051-0.108 2.382-2.377c0.463-0.463 0.75-1.103 0.75-1.81 0-0.106-0.006-0.21-0.019-0.312l0.001 0.012-0.373-3.243c-0.155-1.287-1.24-2.276-2.557-2.276-0.001 0-0.002 0-0.003 0h-2.226c-1.454 0-2.663 1.209-2.574 2.663 0.683 10.987 9.47 19.76 20.444 20.443 1.452 0.089 2.663-1.12 2.663-2.574v-2.226c0-0.004 0-0.008 0-0.012 0-1.308-0.985-2.386-2.253-2.532l-0.012-0.001z"></path>
</symbol>
<symbol id="email-black-18dp" viewBox="0 0 32 32">
<path d="M26.667 5.333h-21.333c-1.467 0-2.652 1.2-2.652 2.667l-0.014 16c0 1.467 1.2 2.667 2.667 2.667h21.333c1.467 0 2.667-1.2 2.667-2.667v-16c0-1.467-1.2-2.667-2.667-2.667zM26.133 11.001l-9.426 5.892c-0.201 0.126-0.446 0.2-0.708 0.2s-0.506-0.075-0.713-0.204l0.006 0.003-9.426-5.892c-0.336-0.201-0.557-0.562-0.557-0.975 0-0.625 0.507-1.132 1.132-1.132 0.233 0 0.449 0.070 0.629 0.19l-0.004-0.003 8.933 5.586 8.933-5.588c0.176-0.118 0.392-0.188 0.624-0.188 0.625 0 1.132 0.507 1.132 1.132 0 0.413-0.221 0.775-0.552 0.972l-0.005 0.003z"></path>
</symbol>
<symbol id="menu_24px16" viewBox="0 0 48 32">
<path d="M0 5.334v-5.334h48v5.334h-48zM0 18.666h48v-5.332h-48v5.332zM0 32h48v-5.334h-48v5.334z"></path>
</symbol>
<symbol id="close_40px" viewBox="0 0 32 32">
<path d="M23.734 10.304l-1.504-1.504-5.963 5.962-5.962-5.962-1.504 1.504 5.962 5.962-5.962 5.963 1.504 1.504 5.962-5.963 5.963 5.963 1.504-1.504-5.963-5.963 5.963-5.962z"></path>
</symbol>
</defs>
</svg>
