<svg aria-hidden="true" style="position: absolute; width: 0; height: 0; overflow: hidden;" version="1.1" xmlns="http://www.w3.org/2000/svg" xmlns:xlink="http://www.w3.org/1999/xlink">
<defs>
<symbol id="icon-linkedin" viewBox="0 0 24 24">
<path  d="M19 0h-14c-2.761 0-5 2.239-5 5v14c0 2.761 2.239 5 5 5h14c2.762 0 5-2.239 5-5v-14c0-2.761-2.238-5-5-5zm-11 19h-3v-11h3v11zm-1.5-12.268c-.966 0-1.75-.79-1.75-1.764s.784-1.764 1.75-1.764 1.75.79 1.75 1.764-.783 1.764-1.75 1.764zm13.5 12.268h-3v-5.604c0-3.368-4-3.113-4 0v5.604h-3v-11h3v1.765c1.396-2.586 7-2.777 7 2.476v6.759z"/>
</symbol>
<symbol id="icon-github" viewBox="0 0 24 24">
<path d="M19 0h-14c-2.761 0-5 2.239-5 5v14c0 2.761 2.239 5 5 5h14c2.762 0 5-2.239 5-5v-14c0-2.761-2.238-5-5-5zm-4.466 19.59c-.405.078-.534-.171-.534-.384v-2.195c0-.747-.262-1.233-.55-1.481 1.782-.198 3.654-.875 3.654-3.947 0-.874-.312-1.588-.823-2.147.082-.202.356-1.016-.079-2.117 0 0-.671-.215-2.198.82-.64-.18-1.324-.267-2.004-.271-.68.003-1.364.091-2.003.269-1.528-1.035-2.2-.82-2.2-.82-.434 1.102-.16 1.915-.077 2.118-.512.56-.824 1.273-.824 2.147 0 3.064 1.867 3.751 3.645 3.954-.229.2-.436.552-.508 1.07-.457.204-1.614.557-2.328-.666 0 0-.423-.768-1.227-.825 0 0-.78-.01-.055.487 0 0 .525.246.889 1.17 0 0 .463 1.428 2.688.944v1.489c0 .211-.129.459-.528.385-3.18-1.057-5.472-4.056-5.472-7.59 0-4.419 3.582-8 8-8s8 3.581 8 8c0 3.533-2.289 6.531-5.466 7.59z"/>
</symbol>
<symbol id="icon-film" viewBox="0 0 32 32">
<path fill="transparent" stroke="currentColor" stroke-linejoin="round" stroke-linecap="round" stroke-miterlimit="4" stroke-width="2.6667" d="M26.427 2.667h-20.853c-1.605 0-2.907 1.301-2.907 2.907v0 20.853c0 1.605 1.301 2.907 2.907 2.907v0h20.853c1.605 0 2.907-1.301 2.907-2.907v0-20.853c0-1.605-1.301-2.907-2.907-2.907v0zM9.333 2.667v26.667M22.667 2.667v26.667M2.667 16h26.667M2.667 9.333h6.667M2.667 22.667h6.667M22.667 22.667h6.667M22.667 9.333h6.667"></path>
</symbol>
<symbol id="icon-search" fill="transparent" viewBox="0 0 12 12">
<path d="M5.5 9.5a4 4 0 1 0 0-8 4 4 0 0 0 0 8ZM10.5 10.5 8.325 8.325" stroke="currentColor" stroke-linecap="round" stroke-linejoin="round"/>
</symbol>
<symbol id="icon-circle-up" viewBox="0 0 32 32">
<path d="M0 16c0 8.837 7.163 16 16 16s16-7.163 16-16-7.163-16-16-16-16 7.163-16 16zM29 16c0 7.18-5.82 13-13 13s-13-5.82-13-13 5.82-13 13-13 13 5.82 13 13z"></path>
<path d="M22.086 20.914l2.829-2.829-8.914-8.914-8.914 8.914 2.828 2.828 6.086-6.086z"></path>
</symbol>
<symbol id="icon-heart-1" viewBox="0 0 14 13">
<path d="M7 12.88L6.02 11.9C2.38 8.68 0 6.51 0 3.85C0 1.68 1.68 0 3.85 0C5.04 0 6.23 0.56 7 1.47C7.77 0.56 8.96 0 10.15 0C12.32 0 14 1.68 14 3.85C14 6.51 11.62 8.68 7.98 11.9L7 12.88Z"></path>
</symbol>
<symbol id="icon-heart" viewBox="0 0 32 32">
<path d="M23.6 2c-3.363 0-6.258 2.736-7.599 5.594-1.342-2.858-4.237-5.594-7.601-5.594-4.637 0-8.4 3.764-8.4 8.401 0 9.433 9.516 11.906 16.001 21.232 6.13-9.268 15.999-12.1 15.999-21.232 0-4.637-3.763-8.401-8.4-8.401z"></path>
</symbol>
<symbol id="icon-close" fill="transparent" viewBox="0 0 32 32">
<path stroke="currentColor" stroke-linejoin="miter" stroke-linecap="butt" stroke-miterlimit="4" stroke-width="2.1333" d="M8.533 8.533l14.933 14.933M8.533 23.467l14.933-14.933"></path>
</symbol>
<symbol id="icon-menu" viewBox="6 6 20 20">
<path d="M6.4 11.734v-2.134h19.2v2.134h-19.2zM6.4 17.066h19.2v-2.133h-19.2v2.133zM6.4 22.4h19.2v-2.134h-19.2v2.134z"></path>
</symbol>
<symbol id="menu_40px" viewBox="0 0 32 32">
<path d="M6.4 11.734v-2.134h19.2v2.134h-19.2zM6.4 17.066h19.2v-2.133h-19.2v2.133zM6.4 22.4h19.2v-2.134h-19.2v2.134z"></path>
</symbol>
<symbol id="person-black-18dp" viewBox="0 0 32 32">
<path d="M16 16c2.946 0 5.333-2.388 5.333-5.333s-2.388-5.333-5.333-5.333v0c-2.946 0-5.333 2.388-5.333 5.333s2.388 5.333 5.333 5.333v0zM16 18.667c-3.561 0-10.667 1.787-10.667 5.333v1.333c0 0.732 0.599 1.333 1.333 1.333h18.667c0.732 0 1.333-0.601 1.333-1.333v-1.333c0-3.547-7.108-5.333-10.667-5.333z"></path>
</symbol>
<symbol id="phone-black-18dp" viewBox="0 0 32 32">
<path d="M24.882 19.774l-3.268-0.373c-0.090-0.011-0.194-0.018-0.299-0.018-0.707 0-1.348 0.287-1.811 0.75l-2.368 2.368c-3.669-1.894-6.585-4.81-8.427-8.372l-0.051-0.108 2.382-2.377c0.463-0.463 0.75-1.103 0.75-1.81 0-0.106-0.006-0.21-0.019-0.312l0.001 0.012-0.373-3.243c-0.155-1.287-1.24-2.276-2.557-2.276-0.001 0-0.002 0-0.003 0h-2.226c-1.454 0-2.663 1.209-2.574 2.663 0.683 10.987 9.47 19.76 20.444 20.443 1.452 0.089 2.663-1.12 2.663-2.574v-2.226c0-0.004 0-0.008 0-0.012 0-1.308-0.985-2.386-2.253-2.532l-0.012-0.001z"></path>
</symbol>
<symbol id="email-black-18dp" viewBox="0 0 32 32">
<path d="M26.667 5.333h-21.333c-1.467 0-2.652 1.2-2.652 2.667l-0.014 16c0 1.467 1.2 2.667 2.667 2.667h21.333c1.467 0 2.667-1.2 2.667-2.667v-16c0-1.467-1.2-2.667-2.667-2.667zM26.133 11.001l-9.426 5.892c-0.201 0.126-0.446 0.2-0.708 0.2s-0.506-0.075-0.713-0.204l0.006 0.003-9.426-5.892c-0.336-0.201-0.557-0.562-0.557-0.975 0-0.625 0.507-1.132 1.132-1.132 0.233 0 0.449 0.070 0.629 0.19l-0.004-0.003 8.933 5.586 8.933-5.588c0.176-0.118 0.392-0.188 0.624-0.188 0.625 0 1.132 0.507 1.132 1.132 0 0.413-0.221 0.775-0.552 0.972l-0.005 0.003z"></path>
</symbol>
<symbol id="menu_24px16" viewBox="0 0 48 32">
<path d="M0 5.334v-5.334h48v5.334h-48zM0 18.666h48v-5.332h-48v5.332zM0 32h48v-5.334h-48v5.334z"></path>
</symbol>
<symbol id="close_40px" viewBox="0 0 32 32">
<path d="M23.734 10.304l-1.504-1.504-5.963 5.962-5.962-5.962-1.504 1.504 5.962 5.962-5.962 5.963 1.504 1.504 5.962-5.963 5.963 5.963 1.504-1.504-5.963-5.963 5.963-5.962z"></path>
<symbol id="icon-arrow" fill="transparent" viewBox="0 0 32 32" width="30" height="30">
<path d="M12.6666 8H3.33325" stroke="currentColor" stroke-width="1.33333" stroke-linecap="round" stroke-linejoin="round"/>
<path d="M7.99992 12.6668L3.33325 8.00016L7.99992 3.3335" stroke="currentColor" stroke-width="1.33333" stroke-linecap="round" stroke-linejoin="round"/>
</symbol>
<symbol id="closebtn" viewBox="0 0 32 32">
<path d="M16 0c-8.822 0-16 7.178-16 16s7.178 16 16 16 16-7.178 16-16-7.178-16-16-16zM16 29.714c-7.562 0-13.714-6.152-13.714-13.714s6.152-13.714 13.714-13.714 13.714 6.152 13.714 13.714-6.152 13.714-13.714 13.714z"></path>
<path d="M20.903 11.097c-0.207-0.207-0.493-0.335-0.808-0.335s-0.601 0.128-0.808 0.335l-3.287 3.287-3.287-3.287c-0.207-0.207-0.493-0.335-0.808-0.335s-0.601 0.128-0.808 0.335v0c-0.207 0.207-0.335 0.493-0.335 0.808s0.128 0.601 0.335 0.808l3.287 3.287-3.287 3.287c-0.207 0.207-0.335 0.493-0.335 0.808 0 0.631 0.512 1.143 1.143 1.143 0 0 0 0 0 0v0c0 0 0.001 0 0.001 0 0.315 0 0.6-0.128 0.807-0.335l3.287-3.287 3.287 3.287c0.223 0.223 0.516 0.335 0.808 0.335s0.585-0.112 0.808-0.335c0.207-0.207 0.335-0.493 0.335-0.808s-0.128-0.601-0.335-0.808l-3.287-3.287 3.287-3.287c0.207-0.207 0.335-0.492 0.335-0.808s-0.128-0.601-0.335-0.808v0z"></path>
</symbol>
<symbol id="app-store" viewBox="0 0 32 32">
<path d="M23.667 4c2.393 0 4.333 1.94 4.333 4.333v0 15.333c0 2.393-1.94 4.333-4.333 4.333v0h-15.333c-2.393 0-4.333-1.94-4.333-4.333v0-15.333c0-2.393 1.94-4.333 4.333-4.333v0h15.333zM12.492 20.339h-2.319l-0.089 0.155-0.060 0.121c-0.048 0.113-0.076 0.245-0.076 0.383 0 0.552 0.448 1 1 1 0.318 0 0.602-0.149 0.785-0.381l0.002-0.002 0.076-0.113 0.68-1.163zM17.724 13.365l-1.161 1.989 3.544 6.144 0.075 0.113c0.185 0.239 0.471 0.391 0.793 0.391 0.552 0 1-0.448 1-1 0-0.138-0.028-0.269-0.078-0.388l0.002 0.007-0.060-0.123-0.669-1.16h1.167l0.136-0.008c0.444-0.063 0.792-0.41 0.854-0.849l0.001-0.005 0.009-0.136-0.009-0.136c-0.063-0.444-0.41-0.792-0.849-0.854l-0.005-0.001-0.136-0.009h-2.32l-2.293-3.973zM17.684 9.468c-0.145-0.086-0.319-0.137-0.505-0.137-0.319 0-0.603 0.149-0.786 0.381l-0.002 0.002-0.076 0.113-0.32 0.545-0.312-0.541-0.075-0.112c-0.185-0.237-0.47-0.389-0.791-0.389-0.131 0-0.256 0.025-0.371 0.071l0.007-0.002-0.135 0.067-0.113 0.075c-0.237 0.185-0.388 0.47-0.388 0.791 0 0.132 0.025 0.257 0.072 0.372l-0.002-0.007 0.067 0.133 0.883 1.531-2.908 4.979h-2.259l-0.136 0.009c-0.491 0.069-0.864 0.486-0.864 0.991s0.373 0.921 0.858 0.99l0.005 0.001 0.136 0.009h8.036l-1.153-2-2.308-0.001 3.8-6.503 0.060-0.12c0.048-0.113 0.077-0.245 0.077-0.384 0-0.367-0.198-0.688-0.492-0.862l-0.005-0.003z"></path>
</symbol>
<symbol id="email" viewBox="0 0 32 32">
<path d="M8.424 10.884c2.22 1.519 4.591 2.696 7.022 3.823 4.104-1.49 7.799-3.482 11.498-5.565 1.391-0.784 2.788-1.576 4.204-2.362-1.761-1.497-6.908-0.721-8.372-0.721-4.193 0.006-8.385 0-12.584-0.006-1.213-0.072-2.478-0.103-3.661 0.006h-1.268c-0.849 0.004-2.022-0.069-2.961 0.241 1.321 0.841 2.524 1.822 3.742 2.791 0.775 0.616 1.557 1.227 2.381 1.792zM6.747 11.892c-1.97-1.43-3.738-3.068-5.832-4.317-0.365 0.984-0.167 2.292-0.291 3.207-0.005 0.036 0.006 0.066 0.006 0.096-0.38 1.623-0.38 3.402-0.423 4.971-0.043 1.52-0.363 3.709-0.111 5.6-0.023 0.91-0.032 1.866 0.167 2.666 3.908-3.082 8.063-6.143 12.251-8.815-2.002-0.994-3.935-2.080-5.768-3.41zM31.872 12.278c0.066-1.237 0.236-2.593 0.026-3.848-3.923 2.177-7.684 4.408-11.716 6.266 2.297 1.92 4.639 3.757 6.938 5.652 1.152 0.947 2.090 1.746 3.015 2.56l-0.133-0.115c0.344 0.301 0.683 0.607 1.022 0.916 0.104-0.206 0.2-0.422 0.275-0.662 0.423-1.331 0.253-2.924 0.148-4.403 0.014-0.325 0.029-0.651 0.044-0.979 0.117-1.794 0.287-3.583 0.381-5.386zM18.372 15.49c-0.556 0.257-1.457 0.619-2.369 0.955l-0.356 0.115c-0.342 0.122-0.623 0.037-0.816-0.15-0.144-0.067-0.289-0.135-0.432-0.203-0.056 0.061-0.12 0.114-0.19 0.159l-0.004 0.002c-4.421 2.765-8.846 6.010-12.957 9.262 0.36 0.23 0.825 0.369 1.436 0.376 2.688 0.033 5.381 0.012 8.074-0.013 4.655 0.125 9.318 0.033 13.972 0.143 1.799 0.041 3.761-0.079 5.121-1.050-3.642-3.315-7.549-6.242-11.312-9.411-0.063-0.054-0.117-0.114-0.164-0.18l-0.002-0.003z"></path>
</symbol>
<symbol id="facebook" viewBox="0 0 32 32">
<path d="M32 16.097c0-8.836-7.164-16-16-16s-16 7.164-16 16c0 7.987 5.851 14.605 13.5 15.805v-11.18h-4.063v-4.627h4.063v-3.523c0-4.009 2.389-6.225 6.044-6.225 1.749 0 3.581 0.313 3.581 0.313v3.937h-2.019c-1.988 0-2.608 1.233-2.608 2.499v3h4.437l-0.709 4.627h-3.728v11.18c7.651-1.201 13.501-7.821 13.501-15.807z"></path>
</symbol>
<symbol id="google-play" viewBox="0 0 32 32">
<path d="M17 14.5l4.2-4.5-16.3-8.8c-0.1-0.1-0.3-0.1-0.6-0.2l12.7 13.5zM23 21l5.9-3.2c0.7-0.4 1.1-1 1.1-1.8s-0.4-1.5-1.1-1.8l-5.9-3.2-4.7 5 4.7 5zM2.4 1.9c-0.3 0.3-0.4 0.7-0.4 1.1v26c0 0.4 0.1 0.8 0.4 1.2l13.2-14.2-13.2-14.1zM17 17.5l-12.7 13.5c0.2 0 0.4-0.1 0.6-0.2l16.3-8.8-4.2-4.5z"></path>
</symbol>
<symbol id="google-plus" viewBox="0 0 32 32">
<path d="M16 0c-8.836 0-16 7.163-16 16s7.163 16 16 16 16-7.163 16-16-7.164-16-16-16zM20.018 16c0 4.015-3.266 7.282-7.282 7.282s-7.282-3.266-7.282-7.282 3.266-7.282 7.282-7.282c1.62 0 3.155 0.521 4.438 1.508l-1.691 2.199c-0.794-0.611-1.744-0.933-2.748-0.933-2.486 0-4.508 2.022-4.508 4.508s2.022 4.508 4.508 4.508c2.002 0 3.703-1.312 4.289-3.121h-4.289v-2.774h7.282v1.387zM27.684 16.907h-2.086v2.086h-1.814v-2.086h-2.085v-1.814h2.085v-2.086h1.814v2.086h2.086v1.814z"></path>
</symbol>
<symbol id="instagram" viewBox="0 0 32 32"><path d="M31.969 9.408c-.075-1.7-.35-2.869-.744-3.882a7.806 7.806 0 0 0-1.851-2.838A7.867 7.867 0 0 0 26.542.844C25.523.45 24.36.175 22.66.1 20.947.019 20.403 0 16.059 0s-4.888.019-6.595.094c-1.7.075-2.869.35-3.882.744a7.803 7.803 0 0 0-2.838 1.85A7.867 7.867 0 0 0 .9 5.52C.506 6.539.231 7.702.156 9.402c-.081 1.713-.1 2.257-.1 6.601s.019 4.888.094 6.595c.075 1.7.35 2.869.744 3.882a7.895 7.895 0 0 0 1.85 2.838 7.867 7.867 0 0 0 2.832 1.844c1.019.394 2.182.669 3.882.744 1.706.075 2.25.094 6.595.094s4.888-.019 6.595-.094c1.7-.075 2.869-.35 3.882-.744a8.184 8.184 0 0 0 4.682-4.682c.394-1.019.669-2.182.744-3.882.075-1.707.094-2.251.094-6.595s-.006-4.888-.081-6.595zm-2.882 13.065c-.069 1.563-.331 2.407-.55 2.969a5.31 5.31 0 0 1-3.038 3.038c-.563.219-1.413.481-2.969.55-1.688.075-2.194.094-6.464.094s-4.782-.019-6.464-.094c-1.563-.069-2.407-.331-2.969-.55a4.926 4.926 0 0 1-1.838-1.194 4.974 4.974 0 0 1-1.194-1.838c-.219-.563-.481-1.413-.55-2.969-.075-1.688-.094-2.194-.094-6.464s.019-4.782.094-6.464c.069-1.563.331-2.407.55-2.969a4.868 4.868 0 0 1 1.2-1.838A4.974 4.974 0 0 1 6.639 3.55c.563-.219 1.413-.481 2.969-.55 1.688-.075 2.194-.094 6.464-.094 4.276 0 4.782.019 6.464.094 1.563.069 2.407.331 2.969.55a4.914 4.914 0 0 1 1.838 1.194 4.974 4.974 0 0 1 1.194 1.838c.219.563.481 1.413.55 2.969.075 1.688.094 2.194.094 6.464s-.019 4.77-.094 6.458z"/><path d="M16.059 7.783c-4.538 0-8.22 3.682-8.22 8.22s3.682 8.22 8.22 8.22c4.539 0 8.22-3.682 8.22-8.22s-3.682-8.22-8.22-8.22zm0 13.552a5.333 5.333 0 0 1 0-10.664 5.333 5.333 0 0 1 0 10.664zM26.524 7.458a1.919 1.919 0 1 1-3.838 0 1.919 1.919 0 0 1 3.838 0z"/></symbol>
<symbol id="map-location" viewBox="0 0 32 32">
<path d="M30.064 13.385h-6.339c-0.321 0-0.582 0.26-0.582 0.582s0.26 0.582 0.582 0.582v0h5.294l1.686 15.704h-29.386l1.979-15.704h5.303c0.321 0 0.582-0.26 0.582-0.582s-0.26-0.582-0.582-0.582v0h-6.329l-2.272 18.031h32l-1.936-18.031z"></path>
<path d="M10.167 26.269c-0.341 0.16-0.688 0.308-1.032 0.441-0.22 0.087-0.372 0.297-0.372 0.543 0 0.321 0.26 0.582 0.582 0.582 0.075 0 0.148-0.014 0.214-0.040l-0.004 0.001c0.489-0.188 0.854-0.347 1.212-0.518l-0.105 0.045c0.199-0.095 0.334-0.295 0.334-0.526 0-0.090-0.020-0.175-0.057-0.251l0.002 0.003c-0.094-0.2-0.294-0.336-0.526-0.336-0.090 0-0.175 0.020-0.251 0.057l0.003-0.002zM21.287 21.854c0.013 0.311 0.268 0.557 0.58 0.558v0l1.188-0.049c0.31-0.014 0.555-0.269 0.555-0.581 0-0.009 0-0.018-0.001-0.027v0.001c-0.015-0.322-0.293-0.584-0.608-0.555l-1.159 0.048c-0.311 0.013-0.558 0.268-0.558 0.581 0 0.009 0 0.017 0.001 0.026v-0.001zM18.279 21.62c-0.265 0.058-0.46 0.291-0.46 0.569 0 0.321 0.26 0.582 0.582 0.582 0.043 0 0.085-0.005 0.125-0.014l-0.004 0.001c0.279-0.063 0.652-0.127 1.030-0.175l0.067-0.007c0.289-0.036 0.51-0.28 0.51-0.576 0-0.026-0.002-0.051-0.005-0.075v0.003c-0.033-0.289-0.276-0.511-0.571-0.511-0.027 0-0.055 0.002-0.081 0.006h0.003c-0.421 0.052-0.824 0.119-1.197 0.198zM13.048 24.532c-0.299 0.226-0.608 0.443-0.919 0.644-0.16 0.105-0.265 0.284-0.265 0.488 0 0.321 0.261 0.582 0.582 0.582 0.118 0 0.228-0.035 0.319-0.095l-0.002 0.001c0.394-0.256 0.715-0.484 1.028-0.722l-0.042 0.031c0.256-0.194 0.307-0.558 0.114-0.815-0.108-0.141-0.276-0.231-0.465-0.231-0.132 0-0.254 0.044-0.351 0.118l0.001-0.001zM5.813 28.408c0.126 0.033 0.254 0.057 0.38 0.072 0.149 0.018 0.298 0.027 0.447 0.027 0.181 0 0.364-0.013 0.546-0.036 0.288-0.037 0.509-0.281 0.509-0.577 0-0.321-0.26-0.582-0.582-0.582-0.026 0-0.051 0.002-0.076 0.005h0.003c-0.117 0.017-0.251 0.027-0.388 0.027-0.112 0-0.223-0.006-0.332-0.019l0.013 0.001c-0.090-0.012-0.168-0.027-0.244-0.047l0.014 0.003c-0.044-0.012-0.095-0.019-0.147-0.019-0.269 0-0.496 0.184-0.561 0.433l-0.001 0.004c-0.012 0.044-0.019 0.094-0.019 0.146 0 0.269 0.183 0.496 0.432 0.561l0.004 0.001zM27.156 19.056c-0.019 0.055-0.029 0.117-0.029 0.183 0 0.321 0.26 0.582 0.582 0.582 0.264 0 0.486-0.175 0.558-0.416l0.001-0.004c0.058-0.184 0.093-0.372 0.106-0.561 0.003-0.042 0.004-0.090 0.004-0.139 0-0.293-0.054-0.573-0.153-0.83l0.005 0.016c-0.091-0.21-0.297-0.354-0.535-0.354-0.322 0-0.582 0.261-0.582 0.582 0 0.063 0.010 0.123 0.028 0.18l-0.001-0.004c0.050 0.135 0.076 0.271 0.076 0.404l-0.002 0.067c-0.008 0.108-0.028 0.209-0.059 0.304l0.003-0.009zM5.933 23.847c0.101 0 0.197-0.026 0.28-0.072l-0.003 0.002c0.169-0.091 0.347-0.148 0.531-0.168 0.079-0.009 0.159-0.009 0.236 0.001 0.024 0.003 0.051 0.006 0.080 0.006 0.294 0 0.536-0.219 0.573-0.503v-0.003c0.003-0.023 0.005-0.049 0.005-0.076 0-0.294-0.219-0.538-0.502-0.576h-0.003c-0.083-0.012-0.18-0.018-0.278-0.018-0.085 0-0.168 0.005-0.25 0.015l0.010-0.001c-0.356 0.041-0.68 0.148-0.969 0.309l0.013-0.007c-0.182 0.101-0.303 0.292-0.303 0.511 0 0.321 0.26 0.581 0.581 0.582v0zM25.227 21.002c-0.267 0.057-0.464 0.29-0.464 0.57 0 0.321 0.26 0.582 0.582 0.582 0.042 0 0.082-0.004 0.122-0.013l-0.004 0.001c0.491-0.101 0.889-0.262 1.205-0.486 0.034-0.023 0.066-0.047 0.098-0.071 0.254-0.197 0.279-0.547 0.081-0.802-0.196-0.253-0.583-0.285-0.836-0.087-0.199 0.139-0.448 0.236-0.784 0.305zM5.153 25.244c0.013-0.046 0.020-0.098 0.020-0.152 0-0.321-0.26-0.581-0.581-0.581-0.267 0-0.492 0.18-0.56 0.426l-0.001 0.004c-0.086 0.305-0.136 0.656-0.136 1.018 0 0.001 0 0.001 0 0.002v0c0 0.115 0.005 0.23 0.016 0.344 0.031 0.295 0.278 0.523 0.579 0.523 0.321 0 0.582-0.261 0.582-0.582 0-0.021-0.001-0.042-0.003-0.062v0.003c-0.007-0.065-0.011-0.14-0.011-0.216 0-0.004 0-0.007 0-0.011v0.001c0-0.001 0-0.003 0-0.005 0-0.253 0.035-0.497 0.099-0.73l-0.005 0.019zM25.998 16.175c-0.132-0.018-0.285-0.028-0.44-0.028-0.337 0-0.664 0.049-0.972 0.139l0.024-0.006c-0.238 0.076-0.407 0.296-0.407 0.555 0 0.321 0.26 0.582 0.582 0.582 0.050 0 0.099-0.006 0.146-0.018l-0.004 0.001c0.189-0.056 0.405-0.088 0.63-0.088 0.101 0 0.2 0.007 0.298 0.019l-0.012-0.001c0.024 0.004 0.053 0.006 0.081 0.006 0.293 0 0.535-0.218 0.573-0.501v-0.003c0.003-0.024 0.005-0.051 0.005-0.079 0-0.294-0.218-0.537-0.501-0.576h-0.003zM15.504 22.665c-0.085 0.051-0.179 0.096-0.26 0.149-0.127 0.083-0.251 0.169-0.373 0.256-0.146 0.107-0.239 0.278-0.239 0.47 0 0.321 0.261 0.582 0.582 0.582 0.129 0 0.248-0.042 0.344-0.113l-0.002 0.001c0.263-0.197 0.561-0.382 0.873-0.542l0.035-0.016c0.189-0.098 0.315-0.291 0.315-0.515 0-0.081-0.017-0.158-0.047-0.228l0.001 0.004c0.005-0.005 0.010-0.008 0.015-0.013 1.052-1.114 4.598-5.291 6.066-12.248 0.298-1.411 0.365-2.765 0.199-4.024-0.5-3.824-2.876-5.846-6.871-5.846s-6.37 2.022-6.871 5.846c-0.165 1.26-0.098 2.613 0.2 4.024 1.454 6.892 4.946 11.053 6.032 12.213zM16.143 3.044c2.356 0 4.273 1.917 4.273 4.273s-1.916 4.273-4.273 4.273-4.273-1.917-4.273-4.273 1.916-4.273 4.273-4.273z"></path>
</symbol>
<symbol id="mobile" viewBox="0 0 32 32">
<path d="M22.406 0h-12.813c-1.764 0-3.194 1.43-3.194 3.194v0 25.611c0 1.765 1.43 3.195 3.194 3.195h12.811c1.764 0 3.194-1.43 3.195-3.194v-25.613c0-1.764-1.43-3.194-3.194-3.194v0zM16 30.4c-1.104 0-2-0.715-2-1.6s0.896-1.6 2-1.6 2 0.715 2 1.6-0.896 1.6-2 1.6zM22.4 25.6h-12.8v-22.4h12.8v22.4z"></path>
</symbol>
<symbol id="twitter" viewBox="0 0 32 32">
<path d="M31.275 5.924c-0.419 0.193-0.933 0.385-1.462 0.542l-0.086 0.022c0.608-0.685 1.084-1.502 1.379-2.401l0.014-0.048c0.016-0.047 0.025-0.101 0.025-0.157 0-0.285-0.231-0.516-0.516-0.516-0.097 0-0.188 0.027-0.266 0.074l0.002-0.001c-1.037 0.627-2.239 1.118-3.519 1.407l-0.082 0.016c-1.278-1.249-3.014-1.96-4.808-1.96-3.788 0-6.87 3.082-6.87 6.869 0 0.298 0.019 0.595 0.056 0.888-4.7-0.413-9.070-2.723-12.071-6.404-0.095-0.116-0.239-0.19-0.4-0.19-0.189 0-0.355 0.102-0.445 0.254l-0.001 0.002c-0.609 1.044-0.93 2.239-0.93 3.454 0 1.655 0.591 3.226 1.635 4.453-0.357-0.125-0.66-0.263-0.949-0.426l0.029 0.015c-0.072-0.041-0.159-0.065-0.251-0.065-0.281 0-0.509 0.224-0.516 0.504v0.001c-0.001 0.030-0.001 0.061-0.001 0.092 0 2.471 1.33 4.695 3.363 5.907-0.206-0.021-0.385-0.047-0.56-0.082l0.038 0.006c-0.029-0.006-0.063-0.009-0.097-0.009-0.285 0-0.516 0.231-0.516 0.516 0 0.056 0.009 0.111 0.026 0.161l-0.001-0.004c0.753 2.349 2.69 4.078 5.032 4.604-1.943 1.217-4.164 1.854-6.496 1.854-0.001 0-0.001 0-0.002 0-0.512 0-1.017-0.031-1.513-0.091l0.060 0.006c-0.018-0.002-0.039-0.004-0.061-0.004-0.285 0-0.516 0.231-0.516 0.516 0 0.182 0.094 0.341 0.235 0.433l0.002 0.001c2.996 1.921 6.46 2.936 10.018 2.936 6.994 0 11.369-3.298 13.808-6.065 3.041-3.45 4.785-8.016 4.785-12.528 0-0.188-0.003-0.379-0.009-0.569 1.2-0.904 2.233-1.998 3.073-3.255 0.055-0.081 0.087-0.18 0.087-0.287 0-0.285-0.231-0.516-0.516-0.516-0.076 0-0.148 0.016-0.212 0.046l0.003-0.001z"></path>
</symbol>
<symbol id="youtube" viewBox="0 0 32 32">
<path d="M30.753 6.673c-1.155-1.373-3.288-1.933-7.361-1.933h-14.785c-4.166 0-6.335 0.596-7.486 2.058-1.122 1.425-1.122 3.525-1.122 6.432v5.54c0 5.631 1.331 8.49 8.608 8.49h14.785c3.532 0 5.489-0.494 6.755-1.706 1.298-1.243 1.852-3.272 1.852-6.784v-5.54c0-3.065-0.087-5.178-1.247-6.557zM20.544 16.765l-6.714 3.509c-0.139 0.074-0.304 0.118-0.478 0.118-0.57 0-1.032-0.462-1.032-1.032 0 0 0 0 0-0.001v0-6.995c0-0.57 0.462-1.032 1.032-1.032 0.174 0 0.338 0.043 0.481 0.119l-0.006-0.003 6.714 3.486c0.333 0.176 0.557 0.52 0.557 0.916s-0.222 0.739-0.549 0.912l-0.006 0.003z"></path>
</symbol>
</defs>
</svg>
